<svg width="45" height="44" viewBox="0 0 45 44" fill="none" xmlns="http://www.w3.org/2000/svg">
<g filter="url(#filter0_d_1043_849)">
<path d="M2.25 21C2.25 9.95431 11.2043 1 22.25 1C33.2957 1 42.25 9.95431 42.25 21C42.25 32.0457 33.2957 41 22.25 41C11.2043 41 2.25 32.0457 2.25 21Z" fill="#FAFAFA" shape-rendering="crispEdges"/>
<path d="M2.75 21C2.75 10.2304 11.4804 1.5 22.25 1.5C33.0196 1.5 41.75 10.2304 41.75 21C41.75 31.7696 33.0196 40.5 22.25 40.5C11.4804 40.5 2.75 31.7696 2.75 21Z" stroke="#EAECF0" shape-rendering="crispEdges"/>
<path d="M22.2499 20.9997C21.3333 20.9997 20.5485 20.6733 19.8958 20.0205C19.243 19.3677 18.9166 18.583 18.9166 17.6663C18.9166 16.7497 19.243 15.965 19.8958 15.3122C20.5485 14.6594 21.3333 14.333 22.2499 14.333C23.1666 14.333 23.9513 14.6594 24.6041 15.3122C25.2569 15.965 25.5833 16.7497 25.5833 17.6663C25.5833 18.583 25.2569 19.3677 24.6041 20.0205C23.9513 20.6733 23.1666 20.9997 22.2499 20.9997ZM15.5833 27.6663V25.333C15.5833 24.8608 15.7048 24.4268 15.9478 24.0309C16.1909 23.6351 16.5138 23.333 16.9166 23.1247C17.7777 22.6941 18.6527 22.3712 19.5416 22.1559C20.4305 21.9406 21.3333 21.833 22.2499 21.833C23.1666 21.833 24.0694 21.9406 24.9583 22.1559C25.8471 22.3712 26.7221 22.6941 27.5833 23.1247C27.986 23.333 28.3089 23.6351 28.552 24.0309C28.7951 24.4268 28.9166 24.8608 28.9166 25.333V27.6663H15.5833ZM17.2499 25.9997H27.2499V25.333C27.2499 25.1802 27.2117 25.0413 27.1353 24.9163C27.0589 24.7913 26.9583 24.6941 26.8333 24.6247C26.0833 24.2497 25.3263 23.9684 24.5624 23.7809C23.7985 23.5934 23.0277 23.4997 22.2499 23.4997C21.4721 23.4997 20.7013 23.5934 19.9374 23.7809C19.1735 23.9684 18.4166 24.2497 17.6666 24.6247C17.5416 24.6941 17.4409 24.7913 17.3645 24.9163C17.2881 25.0413 17.2499 25.1802 17.2499 25.333V25.9997ZM22.2499 19.333C22.7083 19.333 23.1006 19.1698 23.427 18.8434C23.7534 18.517 23.9166 18.1247 23.9166 17.6663C23.9166 17.208 23.7534 16.8156 23.427 16.4893C23.1006 16.1629 22.7083 15.9997 22.2499 15.9997C21.7916 15.9997 21.3992 16.1629 21.0728 16.4893C20.7464 16.8156 20.5833 17.208 20.5833 17.6663C20.5833 18.1247 20.7464 18.517 21.0728 18.8434C21.3992 19.1698 21.7916 19.333 22.2499 19.333Z" fill="#1E1E1E"/>
</g>
<defs>
<filter id="filter0_d_1043_849" x="0.25" y="0" width="44" height="44" filterUnits="userSpaceOnUse" color-interpolation-filters="sRGB">
<feFlood flood-opacity="0" result="BackgroundImageFix"/>
<feColorMatrix in="SourceAlpha" type="matrix" values="0 0 0 0 0 0 0 0 0 0 0 0 0 0 0 0 0 0 127 0" result="hardAlpha"/>
<feOffset dy="1"/>
<feGaussianBlur stdDeviation="1"/>
<feComposite in2="hardAlpha" operator="out"/>
<feColorMatrix type="matrix" values="0 0 0 0 0.0627451 0 0 0 0 0.0941176 0 0 0 0 0.156863 0 0 0 0.05 0"/>
<feBlend mode="normal" in2="BackgroundImageFix" result="effect1_dropShadow_1043_849"/>
<feBlend mode="normal" in="SourceGraphic" in2="effect1_dropShadow_1043_849" result="shape"/>
</filter>
</defs>
</svg>
