<svg width="21" height="20" viewBox="0 0 21 20" fill="none" xmlns="http://www.w3.org/2000/svg">
<path d="M9.41675 3.33344H3.58341C3.14139 3.33344 2.71746 3.50904 2.4049 3.8216C2.09234 4.13416 1.91675 4.55808 1.91675 5.00011V16.6668C1.91675 17.1088 2.09234 17.5327 2.4049 17.8453C2.71746 18.1578 3.14139 18.3334 3.58341 18.3334H15.2501C15.6921 18.3334 16.116 18.1578 16.4286 17.8453C16.7412 17.5327 16.9167 17.1088 16.9167 16.6668V10.8334M15.6667 2.08344C15.9983 1.75192 16.4479 1.56567 16.9167 1.56567C17.3856 1.56567 17.8352 1.75192 18.1667 2.08344C18.4983 2.41496 18.6845 2.8646 18.6845 3.33344C18.6845 3.80228 18.4983 4.25192 18.1667 4.58344L10.2501 12.5001L6.91675 13.3334L7.75008 10.0001L15.6667 2.08344Z" stroke="white" stroke-width="1.66667" stroke-linecap="round" stroke-linejoin="round"/>
</svg>
