<svg width="45" height="44" viewBox="0 0 45 44" fill="none" xmlns="http://www.w3.org/2000/svg">
<g filter="url(#filter0_d_1043_863)">
<path d="M2.25 21C2.25 9.95431 11.2043 1 22.25 1C33.2957 1 42.25 9.95431 42.25 21C42.25 32.0457 33.2957 41 22.25 41C11.2043 41 2.25 32.0457 2.25 21Z" fill="#FAFAFA" shape-rendering="crispEdges"/>
<path d="M2.75 21C2.75 10.2304 11.4804 1.5 22.25 1.5C33.0196 1.5 41.75 10.2304 41.75 21C41.75 31.7696 33.0196 40.5 22.25 40.5C11.4804 40.5 2.75 31.7696 2.75 21Z" stroke="#EAECF0" shape-rendering="crispEdges"/>
<path d="M21.4167 14.3332H15.5834C15.1414 14.3332 14.7175 14.5088 14.4049 14.8214C14.0923 15.1339 13.9167 15.5578 13.9167 15.9999V27.6665C13.9167 28.1086 14.0923 28.5325 14.4049 28.845C14.7175 29.1576 15.1414 29.3332 15.5834 29.3332H27.2501C27.6921 29.3332 28.116 29.1576 28.4286 28.845C28.7412 28.5325 28.9167 28.1086 28.9167 27.6665V21.8332M27.6667 13.0832C27.9983 12.7517 28.4479 12.5654 28.9167 12.5654C29.3856 12.5654 29.8352 12.7517 30.1667 13.0832C30.4983 13.4147 30.6845 13.8644 30.6845 14.3332C30.6845 14.802 30.4983 15.2517 30.1667 15.5832L22.2501 23.4999L18.9167 24.3332L19.7501 20.9999L27.6667 13.0832Z" stroke="black" stroke-width="1.66667" stroke-linecap="round" stroke-linejoin="round"/>
</g>
<defs>
<filter id="filter0_d_1043_863" x="0.25" y="0" width="44" height="44" filterUnits="userSpaceOnUse" color-interpolation-filters="sRGB">
<feFlood flood-opacity="0" result="BackgroundImageFix"/>
<feColorMatrix in="SourceAlpha" type="matrix" values="0 0 0 0 0 0 0 0 0 0 0 0 0 0 0 0 0 0 127 0" result="hardAlpha"/>
<feOffset dy="1"/>
<feGaussianBlur stdDeviation="1"/>
<feComposite in2="hardAlpha" operator="out"/>
<feColorMatrix type="matrix" values="0 0 0 0 0.0627451 0 0 0 0 0.0941176 0 0 0 0 0.156863 0 0 0 0.05 0"/>
<feBlend mode="normal" in2="BackgroundImageFix" result="effect1_dropShadow_1043_863"/>
<feBlend mode="normal" in="SourceGraphic" in2="effect1_dropShadow_1043_863" result="shape"/>
</filter>
</defs>
</svg>
