<svg width="41" height="40" viewBox="0 0 41 40" fill="none" xmlns="http://www.w3.org/2000/svg">
<path d="M0.25 20C0.25 8.95431 9.20431 0 20.25 0C31.2957 0 40.25 8.95431 40.25 20C40.25 31.0457 31.2957 40 20.25 40C9.20431 40 0.25 31.0457 0.25 20Z" fill="#1E1E1E"/>
<path d="M19.4167 23.333V16.5413L17.25 18.708L16.0834 17.4997L20.25 13.333L24.4167 17.4997L23.25 18.708L21.0834 16.5413V23.333H19.4167ZM15.25 26.6663C14.7917 26.6663 14.3993 26.5031 14.073 26.1768C13.7466 25.8504 13.5834 25.458 13.5834 24.9997V22.4997H15.25V24.9997H25.25V22.4997H26.9167V24.9997C26.9167 25.458 26.7535 25.8504 26.4271 26.1768C26.1007 26.5031 25.7084 26.6663 25.25 26.6663H15.25Z" fill="white"/>
</svg>
