<svg width="21" height="20" viewBox="0 0 21 20" fill="none" xmlns="http://www.w3.org/2000/svg">
<path d="M12.4166 1.66675H5.74992C5.30789 1.66675 4.88397 1.84234 4.57141 2.1549C4.25885 2.46746 4.08325 2.89139 4.08325 3.33341V16.6667C4.08325 17.1088 4.25885 17.5327 4.57141 17.8453C4.88397 18.1578 5.30789 18.3334 5.74992 18.3334H15.7499C16.1919 18.3334 16.6159 18.1578 16.9284 17.8453C17.241 17.5327 17.4166 17.1088 17.4166 16.6667V6.66675M12.4166 1.66675L17.4166 6.66675M12.4166 1.66675V6.66675H17.4166M14.0833 10.8334H7.41659M14.0833 14.1667H7.41659M9.08325 7.50008H7.41659" stroke="white" stroke-width="1.66667" stroke-linecap="round" stroke-linejoin="round"/>
</svg>
