<svg width="21" height="20" viewBox="0 0 21 20" fill="none" xmlns="http://www.w3.org/2000/svg">
<path d="M17.4166 10.4167V5.66675C17.4166 4.26662 17.4166 3.56655 17.1441 3.03177C16.9044 2.56137 16.522 2.17892 16.0516 1.93923C15.5168 1.66675 14.8167 1.66675 13.4166 1.66675H8.08325C6.68312 1.66675 5.98306 1.66675 5.44828 1.93923C4.97787 2.17892 4.59542 2.56137 4.35574 3.03177C4.08325 3.56655 4.08325 4.26662 4.08325 5.66675V14.3334C4.08325 15.7335 4.08325 16.4336 4.35574 16.9684C4.59542 17.4388 4.97787 17.8212 5.44828 18.0609C5.98306 18.3334 6.68312 18.3334 8.08325 18.3334H10.7499M12.4166 9.16675H7.41659M9.08325 12.5001H7.41659M14.0833 5.83341H7.41659M12.8333 15.8334L14.4999 17.5001L18.2499 13.7501" stroke="white" stroke-width="2" stroke-linecap="round" stroke-linejoin="round"/>
</svg>
