<svg width="45" height="44" viewBox="0 0 45 44" fill="none" xmlns="http://www.w3.org/2000/svg">
<g filter="url(#filter0_d_1043_870)">
<path d="M2.75 21C2.75 9.95431 11.7043 1 22.75 1C33.7957 1 42.75 9.95431 42.75 21C42.75 32.0457 33.7957 41 22.75 41C11.7043 41 2.75 32.0457 2.75 21Z" fill="#FAFAFA" shape-rendering="crispEdges"/>
<path d="M3.25 21C3.25 10.2304 11.9804 1.5 22.75 1.5C33.5196 1.5 42.25 10.2304 42.25 21C42.25 31.7696 33.5196 40.5 22.75 40.5C11.9804 40.5 3.25 31.7696 3.25 21Z" stroke="#EAECF0" shape-rendering="crispEdges"/>
<g clip-path="url(#clip0_1043_870)">
<path d="M31.9166 16.8337L26.0833 21.0003L31.9166 25.167V16.8337Z" stroke="#1E1E1E" stroke-width="2" stroke-linecap="round" stroke-linejoin="round"/>
<path d="M24.4166 15.167H15.2499C14.3294 15.167 13.5833 15.9132 13.5833 16.8337V25.167C13.5833 26.0875 14.3294 26.8337 15.2499 26.8337H24.4166C25.3371 26.8337 26.0833 26.0875 26.0833 25.167V16.8337C26.0833 15.9132 25.3371 15.167 24.4166 15.167Z" stroke="#1E1E1E" stroke-width="2" stroke-linecap="round" stroke-linejoin="round"/>
</g>
</g>
<defs>
<filter id="filter0_d_1043_870" x="0.75" y="0" width="44" height="44" filterUnits="userSpaceOnUse" color-interpolation-filters="sRGB">
<feFlood flood-opacity="0" result="BackgroundImageFix"/>
<feColorMatrix in="SourceAlpha" type="matrix" values="0 0 0 0 0 0 0 0 0 0 0 0 0 0 0 0 0 0 127 0" result="hardAlpha"/>
<feOffset dy="1"/>
<feGaussianBlur stdDeviation="1"/>
<feComposite in2="hardAlpha" operator="out"/>
<feColorMatrix type="matrix" values="0 0 0 0 0.0627451 0 0 0 0 0.0941176 0 0 0 0 0.156863 0 0 0 0.05 0"/>
<feBlend mode="normal" in2="BackgroundImageFix" result="effect1_dropShadow_1043_870"/>
<feBlend mode="normal" in="SourceGraphic" in2="effect1_dropShadow_1043_870" result="shape"/>
</filter>
<clipPath id="clip0_1043_870">
<rect width="20" height="20" fill="white" transform="translate(12.75 11)"/>
</clipPath>
</defs>
</svg>
