<svg width="124" height="52" viewBox="0 0 124 52" fill="none" xmlns="http://www.w3.org/2000/svg">
<g filter="url(#filter0_d_77_2211)">
<rect x="2" y="2" width="120" height="48" rx="24" fill="white" shape-rendering="crispEdges"/>
<g clip-path="url(#clip0_77_2211)">
<path d="M25.5 45.9971C14.1963 45.9971 5 36.8037 5 25.5C5 14.1963 14.1963 5 25.5 5C36.8037 5 46 14.1963 46 25.5C46 36.8037 36.8037 46 25.5 46V45.9971Z" fill="white"/>
<path d="M19.6571 38.7676C19.6657 39.1092 19.5394 39.7868 19.3614 40.674C21.308 41.3373 23.404 41.6703 25.5803 41.6071C33.0022 41.3918 39.2211 36.6458 41.676 30.0996C41.4291 30.068 41.274 30.0565 41.274 30.0565C39.2097 29.7378 38.5952 28.575 38.5952 28.575C39.3274 25.2502 37.8947 23.2174 37.8947 23.2174C36.215 18.3595 34.8197 17.7651 34.8197 17.7651C35.4571 16.341 34.946 15.7869 34.946 15.7869C33.7918 16.4961 33.0453 16.1602 33.0453 16.1602C30.8374 15.5371 26.3957 15.741 26.3957 15.741C24.7333 15.8845 22.9389 16.809 22.9389 16.809C20.2342 17.8513 18.7125 20.3147 18.7125 20.3147C18.2761 20.8344 17.6818 20.998 17.6818 20.998C16.5075 20.998 13.9292 22.6547 13.9292 22.6547C10.6733 25.2703 12.1491 27.7797 12.1491 27.7797C12.1491 27.7797 12.4907 27.7223 12.5281 27.6218C12.5654 27.5242 13.7627 25.5833 16.4874 25.9651C16.4874 25.9651 18.2962 25.8273 19.749 26.8609C19.749 26.8609 21.1788 28.107 21.2707 28.5865C21.3626 29.066 21.4889 30.8863 21.2707 31.6615C21.2707 31.6615 19.6227 37.421 19.6571 38.7647V38.7676Z" fill="black"/>
<path d="M25.0578 42.3307C23.0337 42.3307 21.0411 42.0034 19.1289 41.3516L18.5317 41.1478L18.6552 40.5305C18.7643 39.9907 18.9451 39.0834 18.9365 38.7848C18.9021 37.3722 20.4066 32.0663 20.5788 31.4662C20.7425 30.8805 20.6563 29.2727 20.5702 28.7616C20.4554 28.5434 19.8811 27.9376 19.304 27.4294C18.0924 26.5853 16.5535 26.6829 16.5362 26.6829L16.4616 26.6887L16.3841 26.6772C14.2049 26.37 13.2574 27.7969 13.1684 27.9376C13.0306 28.2247 12.7348 28.4056 12.264 28.486L11.7759 28.5693L11.5261 28.1415C10.9059 27.0877 10.5155 24.4693 13.4756 22.0919L13.5388 22.046C13.9838 21.7618 16.2089 20.3721 17.5469 20.2803C17.6617 20.2343 17.923 20.1137 18.1326 19.8812C18.3824 19.4936 19.9587 17.1995 22.6432 16.1487C22.9217 16.008 24.6616 15.1667 26.3326 15.0203H26.3613C26.5479 15.0088 30.9465 14.8165 33.2406 15.4653L33.3382 15.4998C33.3382 15.4998 33.8033 15.6405 34.5699 15.1696L35.0724 14.8595L35.4743 15.2931C35.5978 15.428 36.1347 16.1113 35.6811 17.5182C36.3213 18.1269 37.3837 19.5625 38.5436 22.893C38.8278 23.3495 39.9275 25.3593 39.359 28.4027C39.5944 28.664 40.1773 29.1492 41.3545 29.3359C41.4148 29.3416 41.5583 29.356 41.7622 29.3818L42.6608 29.4966L42.3421 30.3436C39.6978 37.398 33.1229 42.0981 25.5947 42.3163C25.4138 42.3221 25.233 42.3249 25.0521 42.3249L25.0578 42.3307ZM20.1883 40.1831C21.9254 40.7027 23.7313 40.9382 25.5603 40.8865C32.207 40.6941 38.044 36.7147 40.6711 30.6681C38.7015 30.2087 38.0354 29.0459 37.9608 28.9052L37.8373 28.6726L37.8947 28.4171C38.5522 25.4368 37.3205 23.6452 37.309 23.628L37.2516 23.5447L37.2171 23.45C35.8304 19.439 34.679 18.5289 34.5211 18.4169L33.7545 18.1901L34.168 17.4694C34.2828 17.211 34.3517 16.9957 34.3862 16.8234C33.5909 17.0617 33.0224 16.9124 32.8214 16.8377C30.8001 16.2779 26.7145 16.4415 26.4417 16.453C24.9487 16.588 23.2806 17.4349 23.2633 17.4436L23.1944 17.4751C20.7597 18.414 19.3327 20.665 19.3184 20.688L19.2581 20.7712C18.6954 21.4459 17.9517 21.6641 17.8685 21.6871L17.7766 21.713H17.6818C17.0243 21.713 15.3476 22.5973 14.3456 23.2375C12.7894 24.498 12.4994 25.6866 12.5339 26.4704C13.2574 25.7728 14.5638 24.9947 16.5162 25.2445C16.9239 25.2272 18.6867 25.2244 20.1654 26.2752L20.2199 26.3183C21.2909 27.2543 21.8823 27.9692 21.9742 28.4487C22.0632 28.9138 22.2326 30.8805 21.9598 31.851C21.3339 34.0417 20.3491 37.8459 20.3721 38.7417C20.3807 39.0461 20.3176 39.4882 20.1855 40.1773V40.1831H20.1883ZM13.1971 27.8802C13.1914 27.8945 13.1856 27.9089 13.1799 27.9232C13.1885 27.9031 13.1942 27.8888 13.1971 27.8802ZM11.885 27.3031C11.8764 27.3232 11.8678 27.3404 11.8591 27.3634C11.8649 27.3461 11.8735 27.326 11.885 27.3031Z" fill="black"/>
<path d="M24.5439 22.1321C25.4556 22.1321 26.1948 21.393 26.1948 20.4812C26.1948 19.5695 25.4556 18.8303 24.5439 18.8303C23.6321 18.8303 22.8929 19.5695 22.8929 20.4812C22.8929 21.393 23.6321 22.1321 24.5439 22.1321Z" fill="#ED1C24"/>
<path d="M17.6819 20.9952C16.5076 20.9952 13.9293 22.6518 13.9293 22.6518C10.6734 25.2674 12.1492 27.7768 12.1492 27.7768C12.1492 27.7768 12.4909 27.7194 12.5282 27.6189C12.5655 27.5184 13.7628 25.5804 16.4875 25.9623C16.4875 25.9623 17.1364 24.6903 21.6383 23.3667L18.8562 22.5829C18.8562 22.5829 18.6983 22.6346 18.4313 22.2901C18.1643 21.9455 17.6819 20.9923 17.6819 20.9923V20.9952Z" fill="#FFFFD6"/>
<path d="M11.8764 28.3654L11.6898 28.0496C11.6439 27.9721 11.2419 27.2571 11.285 26.1776C11.3252 25.1957 11.7558 23.717 13.5934 22.2412L13.6393 22.2097C13.9178 22.0317 16.3841 20.4726 17.6761 20.4669H18.0034L18.1527 20.7597C18.3308 21.11 18.6753 21.7503 18.8476 21.9714C18.8791 22.0116 18.905 22.0403 18.9222 22.0575L23.5534 23.361L21.7848 23.8807C17.6962 25.0837 16.9555 26.2178 16.9469 26.2293L16.7746 26.5652L16.41 26.4934C14.0872 26.1661 13.0737 27.7366 13.0048 27.8515C12.8957 28.084 12.643 28.2333 12.2353 28.3022L11.8735 28.3625H11.8764V28.3654ZM12.0458 27.4007C12.0458 27.4007 12.0372 27.4208 12.0343 27.4323C12.0372 27.4237 12.0429 27.4122 12.0458 27.4007ZM14.2394 23.0854C12.3186 24.6387 12.2411 26.1001 12.399 26.8954C12.9847 26.2207 14.2509 25.2359 16.2492 25.4053C16.6339 24.9803 17.5785 24.2281 19.8151 23.4069L18.7873 23.1169C18.5892 23.1055 18.3078 23.0021 18.0121 22.6174C17.8197 22.3704 17.5556 21.891 17.3804 21.5637C16.542 21.7474 15.0777 22.5485 14.2394 23.0825V23.0854Z" fill="black"/>
<path d="M16.921 22.9389C17.1239 22.9389 17.2885 22.7744 17.2885 22.5714C17.2885 22.3685 17.1239 22.2039 16.921 22.2039C16.718 22.2039 16.5535 22.3685 16.5535 22.5714C16.5535 22.7744 16.718 22.9389 16.921 22.9389Z" fill="black"/>
<path d="M24.5439 21.4603C25.0846 21.4603 25.5229 21.022 25.5229 20.4812C25.5229 19.9405 25.0846 19.5022 24.5439 19.5022C24.0032 19.5022 23.5648 19.9405 23.5648 20.4812C23.5648 21.022 24.0032 21.4603 24.5439 21.4603Z" fill="black"/>
<path d="M25.5 44.1969C15.1897 44.1969 6.8031 35.8103 6.8031 25.5C6.8031 15.1897 15.1897 6.80308 25.5 6.80308C35.8103 6.80308 44.1969 15.1897 44.1969 25.5C44.1969 35.8103 35.8103 44.1969 25.5 44.1969ZM25.5 9.38712C16.6167 9.38712 9.38713 16.6167 9.38713 25.5C9.38713 34.3833 16.6167 41.6129 25.5 41.6129C34.3834 41.6129 41.6129 34.3833 41.6129 25.5C41.6129 16.6167 34.3862 9.38712 25.5 9.38712Z" fill="black"/>
<path d="M37.688 24.6329C38.1761 26.7174 39.0891 28.7013 40.3668 30.4183C40.5994 30.7284 40.987 30.8863 41.3487 30.6767C41.6559 30.4987 41.8397 30.0077 41.6071 29.6947C40.3955 28.0668 39.5342 26.2293 39.0719 24.2539C38.9829 23.8749 38.5522 23.6539 38.1876 23.7515C37.8 23.8577 37.599 24.2568 37.6851 24.6358H37.688V24.6329Z" fill="black"/>
</g>
<path d="M56 31.1012V19H57.5257V26.1944H59.8471L62.0692 22.6468H63.7597L61.3568 26.4266C62.1525 26.6587 62.7745 27.0928 63.221 27.7272C63.6693 28.3634 63.8926 29.1006 63.8926 29.9405V31.1012H62.3509V29.9405C62.3509 29.4762 62.2482 29.0616 62.0444 28.6965C61.8406 28.3315 61.5553 28.0409 61.1903 27.8265C60.8252 27.6103 60.4053 27.504 59.9304 27.504H57.5275V31.1012H56.0018H56Z" fill="black"/>
<path d="M70.0398 31.2996C69.1786 31.2996 68.4148 31.1029 67.7521 30.7113C67.0893 30.3197 66.5648 29.7881 66.1767 29.12C65.7904 28.452 65.5973 27.7024 65.5973 26.8749C65.5973 26.0474 65.7904 25.2978 66.1767 24.628C66.563 23.9599 67.0893 23.4283 67.7521 23.0367C68.4148 22.6451 69.1768 22.4484 70.0398 22.4484C70.9027 22.4484 71.6665 22.6451 72.3363 23.0367C73.0044 23.4283 73.5307 23.9599 73.9116 24.628C74.2926 25.296 74.484 26.0456 74.484 26.8749C74.484 27.7042 74.2926 28.452 73.9116 29.12C73.5307 29.7881 73.0044 30.3197 72.3363 30.7113C71.6683 31.1029 70.9027 31.2996 70.0398 31.2996ZM70.0575 29.9901C70.6316 29.9901 71.1349 29.8519 71.5655 29.5755C71.9961 29.299 72.3328 28.9269 72.5773 28.4573C72.8201 27.9877 72.9423 27.4597 72.9423 26.8749C72.9423 26.2901 72.8201 25.7621 72.5773 25.2925C72.3345 24.8229 71.9979 24.4508 71.5655 24.1743C71.1349 23.8979 70.6316 23.7597 70.0575 23.7597C69.4833 23.7597 68.9606 23.8979 68.5247 24.1743C68.0888 24.4508 67.7485 24.8229 67.5058 25.2925C67.263 25.7621 67.1407 26.2901 67.1407 26.8749C67.1407 27.4597 67.263 27.9877 67.5058 28.4573C67.7485 28.9269 68.0888 29.3008 68.5247 29.5755C68.9606 29.8519 69.4727 29.9901 70.0575 29.9901Z" fill="black"/>
<path d="M79.637 34.4662V31.2341C79.0186 31.1455 78.4693 30.9381 77.9873 30.6121C77.5071 30.286 77.1279 29.8608 76.8514 29.3362C76.575 28.8117 76.4368 28.211 76.4368 27.5376V22.6468H77.9784V27.5199C77.9784 28.0285 78.0883 28.4679 78.3098 28.8383C78.5313 29.2086 78.8272 29.4939 79.1958 29.6924C79.5662 29.8909 79.9613 29.9901 80.3813 29.9901C80.8013 29.9901 81.2124 29.8909 81.5827 29.6924C81.9531 29.4939 82.2508 29.2086 82.4776 28.8383C82.7044 28.4679 82.8178 28.0285 82.8178 27.5199V22.6468H84.3436V27.5376C84.3436 28.211 84.2089 28.8082 83.9378 29.3274C83.6666 29.8466 83.291 30.2701 82.8107 30.5961C82.3305 30.9222 81.7794 31.1348 81.161 31.2341V34.4662H79.6353H79.637Z" fill="black"/>
<path d="M90.2799 31.2996C89.4612 31.2996 88.7542 31.1029 88.1588 30.7113C87.5616 30.3197 87.1026 29.7863 86.7837 29.1112C86.4629 28.4378 86.3035 27.6918 86.3035 26.8731C86.3035 26.0544 86.4807 25.296 86.8333 24.6262C87.1877 23.9581 87.6945 23.4265 88.359 23.0349C89.0218 22.6433 89.8174 22.4466 90.7459 22.4466C91.6745 22.4466 92.4099 22.6397 93.0496 23.026C93.691 23.4123 94.1854 23.9386 94.5328 24.6014C94.8801 25.2641 95.0555 26.0048 95.0555 26.8235V31.0994H93.5138V29.3752H93.4802C93.3136 29.696 93.0903 30.0025 92.8086 30.2949C92.5268 30.5873 92.176 30.8283 91.756 31.0161C91.336 31.2039 90.8434 31.2979 90.2799 31.2979V31.2996ZM90.6786 29.9901C91.2315 29.9901 91.7206 29.8554 92.1458 29.5843C92.5711 29.3132 92.9025 28.9375 93.1399 28.4573C93.3774 27.9771 93.4961 27.4384 93.4961 26.8412C93.4961 26.244 93.3827 25.7302 93.1559 25.2659C92.9291 24.8016 92.6066 24.4348 92.1866 24.1637C91.7666 23.8926 91.2758 23.7579 90.7105 23.7579C90.1133 23.7579 89.603 23.8961 89.1777 24.1725C88.7524 24.449 88.4264 24.8211 88.1995 25.2907C87.9727 25.7603 87.8593 26.2937 87.8593 26.8908C87.8593 27.488 87.9692 27.9877 88.1907 28.4573C88.4122 28.9269 88.7311 29.3008 89.1529 29.5755C89.5729 29.8519 90.0814 29.9901 90.6786 29.9901Z" fill="black"/>
<path d="M97.4742 31.1012V19H99V31.1012H97.4742Z" fill="black"/>
</g>
<defs>
<filter id="filter0_d_77_2211" x="0" y="0" width="124" height="52" filterUnits="userSpaceOnUse" color-interpolation-filters="sRGB">
<feFlood flood-opacity="0" result="BackgroundImageFix"/>
<feColorMatrix in="SourceAlpha" type="matrix" values="0 0 0 0 0 0 0 0 0 0 0 0 0 0 0 0 0 0 127 0" result="hardAlpha"/>
<feOffset/>
<feGaussianBlur stdDeviation="1"/>
<feComposite in2="hardAlpha" operator="out"/>
<feColorMatrix type="matrix" values="0 0 0 0 0.0901961 0 0 0 0 0.0627451 0 0 0 0 0.054902 0 0 0 0.2 0"/>
<feBlend mode="normal" in2="BackgroundImageFix" result="effect1_dropShadow_77_2211"/>
<feBlend mode="normal" in="SourceGraphic" in2="effect1_dropShadow_77_2211" result="shape"/>
</filter>
<clipPath id="clip0_77_2211">
<rect width="41" height="41" fill="white" transform="translate(5 5)"/>
</clipPath>
</defs>
</svg>
