<svg width="21" height="20" viewBox="0 0 21 20" fill="none" xmlns="http://www.w3.org/2000/svg">
<path d="M10.2499 9.99992C9.33325 9.99992 8.54853 9.67353 7.89575 9.02075C7.24297 8.36797 6.91659 7.58325 6.91659 6.66659C6.91659 5.74992 7.24297 4.9652 7.89575 4.31242C8.54853 3.65964 9.33325 3.33325 10.2499 3.33325C11.1666 3.33325 11.9513 3.65964 12.6041 4.31242C13.2569 4.9652 13.5833 5.74992 13.5833 6.66659C13.5833 7.58325 13.2569 8.36797 12.6041 9.02075C11.9513 9.67353 11.1666 9.99992 10.2499 9.99992ZM3.58325 16.6666V14.3333C3.58325 13.861 3.70478 13.427 3.94784 13.0312C4.19089 12.6353 4.51381 12.3333 4.91659 12.1249C5.7777 11.6944 6.6527 11.3714 7.54159 11.1562C8.43047 10.9409 9.33325 10.8333 10.2499 10.8333C11.1666 10.8333 12.0694 10.9409 12.9583 11.1562C13.8471 11.3714 14.7221 11.6944 15.5833 12.1249C15.986 12.3333 16.3089 12.6353 16.552 13.0312C16.7951 13.427 16.9166 13.861 16.9166 14.3333V16.6666H3.58325ZM5.24992 14.9999H15.2499V14.3333C15.2499 14.1805 15.2117 14.0416 15.1353 13.9166C15.0589 13.7916 14.9583 13.6944 14.8333 13.6249C14.0833 13.2499 13.3263 12.9687 12.5624 12.7812C11.7985 12.5937 11.0277 12.4999 10.2499 12.4999C9.47214 12.4999 8.70131 12.5937 7.93742 12.7812C7.17353 12.9687 6.41659 13.2499 5.66659 13.6249C5.54159 13.6944 5.44089 13.7916 5.3645 13.9166C5.28811 14.0416 5.24992 14.1805 5.24992 14.3333V14.9999ZM10.2499 8.33325C10.7083 8.33325 11.1006 8.17006 11.427 7.84367C11.7534 7.51728 11.9166 7.12492 11.9166 6.66659C11.9166 6.20825 11.7534 5.81589 11.427 5.4895C11.1006 5.16311 10.7083 4.99992 10.2499 4.99992C9.79158 4.99992 9.39922 5.16311 9.07284 5.4895C8.74645 5.81589 8.58325 6.20825 8.58325 6.66659C8.58325 7.12492 8.74645 7.51728 9.07284 7.84367C9.39922 8.17006 9.79158 8.33325 10.2499 8.33325Z" fill="white"/>
</svg>
